<mxfile host="app.diagrams.net" modified="2020-03-13T09:15:54.096Z" agent="Mozilla/5.0 (Windows NT 10.0; Win64; x64; rv:74.0) Gecko/20100101 Firefox/74.0" etag="gXBJPfaHhVRC8FRCCe4d" version="12.8.4" type="github" pages="2">
  <diagram id="8hM8eKx9FqQhhv3X915I" name="Page-1">
    <mxGraphModel dx="1065" dy="662" grid="1" gridSize="10" guides="1" tooltips="1" connect="1" arrows="1" fold="1" page="1" pageScale="1" pageWidth="850" pageHeight="1100" math="0" shadow="0">
      <root>
        <mxCell id="0" />
        <mxCell id="1" parent="0" />
        <mxCell id="wkyLA0-zLoEX_zGzszOJ-16" value="" style="group" parent="1" vertex="1" connectable="0">
          <mxGeometry x="90" y="46" width="200" height="194" as="geometry" />
        </mxCell>
        <mxCell id="wkyLA0-zLoEX_zGzszOJ-1" value="Table" style="swimlane;fontStyle=0;childLayout=stackLayout;horizontal=1;startSize=26;fillColor=#e0e0e0;horizontalStack=0;resizeParent=1;resizeParentMax=0;resizeLast=0;collapsible=1;marginBottom=0;swimlaneFillColor=#ffffff;align=center;fontSize=14;" parent="wkyLA0-zLoEX_zGzszOJ-16" vertex="1">
          <mxGeometry width="200" height="193.45263157894732" as="geometry" />
        </mxCell>
        <mxCell id="wkyLA0-zLoEX_zGzszOJ-2" value="_id : VARCHAR" style="shape=partialRectangle;top=0;left=0;right=0;bottom=1;align=left;verticalAlign=middle;fillColor=none;spacingLeft=34;spacingRight=4;overflow=hidden;rotatable=0;points=[[0,0.5],[1,0.5]];portConstraint=eastwest;dropTarget=0;fontStyle=5;fontSize=12;" parent="wkyLA0-zLoEX_zGzszOJ-1" vertex="1">
          <mxGeometry y="26" width="200" height="30.631578947368414" as="geometry" />
        </mxCell>
        <mxCell id="wkyLA0-zLoEX_zGzszOJ-3" value="PK" style="shape=partialRectangle;top=0;left=0;bottom=0;fillColor=none;align=left;verticalAlign=middle;spacingLeft=4;spacingRight=4;overflow=hidden;rotatable=0;points=[];portConstraint=eastwest;part=1;fontSize=12;" parent="wkyLA0-zLoEX_zGzszOJ-2" vertex="1" connectable="0">
          <mxGeometry width="30" height="30.631578947368414" as="geometry" />
        </mxCell>
        <mxCell id="wkyLA0-zLoEX_zGzszOJ-4" value="username : VARCHAR" style="shape=partialRectangle;top=0;left=0;right=0;bottom=0;align=left;verticalAlign=top;fillColor=none;spacingLeft=34;spacingRight=4;overflow=hidden;rotatable=0;points=[[0,0.5],[1,0.5]];portConstraint=eastwest;dropTarget=0;fontSize=12;" parent="wkyLA0-zLoEX_zGzszOJ-1" vertex="1">
          <mxGeometry y="56.63157894736841" width="200" height="26.547368421052628" as="geometry" />
        </mxCell>
        <mxCell id="wkyLA0-zLoEX_zGzszOJ-5" value="" style="shape=partialRectangle;top=0;left=0;bottom=0;fillColor=none;align=left;verticalAlign=top;spacingLeft=4;spacingRight=4;overflow=hidden;rotatable=0;points=[];portConstraint=eastwest;part=1;fontSize=12;" parent="wkyLA0-zLoEX_zGzszOJ-4" vertex="1" connectable="0">
          <mxGeometry width="30" height="26.547368421052628" as="geometry" />
        </mxCell>
        <mxCell id="wkyLA0-zLoEX_zGzszOJ-6" value="org_id : VARCHAR" style="shape=partialRectangle;top=0;left=0;right=0;bottom=0;align=left;verticalAlign=top;fillColor=none;spacingLeft=34;spacingRight=4;overflow=hidden;rotatable=0;points=[[0,0.5],[1,0.5]];portConstraint=eastwest;dropTarget=0;fontSize=12;" parent="wkyLA0-zLoEX_zGzszOJ-1" vertex="1">
          <mxGeometry y="83.17894736842103" width="200" height="26.547368421052628" as="geometry" />
        </mxCell>
        <mxCell id="wkyLA0-zLoEX_zGzszOJ-7" value="" style="shape=partialRectangle;top=0;left=0;bottom=0;fillColor=none;align=left;verticalAlign=top;spacingLeft=4;spacingRight=4;overflow=hidden;rotatable=0;points=[];portConstraint=eastwest;part=1;fontSize=12;" parent="wkyLA0-zLoEX_zGzszOJ-6" vertex="1" connectable="0">
          <mxGeometry width="30" height="26.547368421052628" as="geometry" />
        </mxCell>
        <mxCell id="wkyLA0-zLoEX_zGzszOJ-8" value="type : VARCHAR" style="shape=partialRectangle;top=0;left=0;right=0;bottom=0;align=left;verticalAlign=top;fillColor=none;spacingLeft=34;spacingRight=4;overflow=hidden;rotatable=0;points=[[0,0.5],[1,0.5]];portConstraint=eastwest;dropTarget=0;fontSize=12;" parent="wkyLA0-zLoEX_zGzszOJ-1" vertex="1">
          <mxGeometry y="109.72631578947366" width="200" height="26.547368421052628" as="geometry" />
        </mxCell>
        <mxCell id="wkyLA0-zLoEX_zGzszOJ-9" value="" style="shape=partialRectangle;top=0;left=0;bottom=0;fillColor=none;align=left;verticalAlign=top;spacingLeft=4;spacingRight=4;overflow=hidden;rotatable=0;points=[];portConstraint=eastwest;part=1;fontSize=12;" parent="wkyLA0-zLoEX_zGzszOJ-8" vertex="1" connectable="0">
          <mxGeometry width="30" height="26.547368421052628" as="geometry" />
        </mxCell>
        <mxCell id="wkyLA0-zLoEX_zGzszOJ-10" value="begin_time : INIT8" style="shape=partialRectangle;top=0;left=0;right=0;bottom=0;align=left;verticalAlign=top;fillColor=none;spacingLeft=34;spacingRight=4;overflow=hidden;rotatable=0;points=[[0,0.5],[1,0.5]];portConstraint=eastwest;dropTarget=0;fontSize=12;" parent="wkyLA0-zLoEX_zGzszOJ-1" vertex="1">
          <mxGeometry y="136.27368421052628" width="200" height="57.17894736842105" as="geometry" />
        </mxCell>
        <mxCell id="wkyLA0-zLoEX_zGzszOJ-11" value="" style="shape=partialRectangle;top=0;left=0;bottom=0;fillColor=none;align=left;verticalAlign=top;spacingLeft=4;spacingRight=4;overflow=hidden;rotatable=0;points=[];portConstraint=eastwest;part=1;fontSize=12;" parent="wkyLA0-zLoEX_zGzszOJ-10" vertex="1" connectable="0">
          <mxGeometry width="30" height="57.17894736842105" as="geometry" />
        </mxCell>
        <mxCell id="wkyLA0-zLoEX_zGzszOJ-12" value="end_time : INIT8" style="shape=partialRectangle;top=0;left=0;right=0;bottom=0;align=left;verticalAlign=top;fillColor=none;spacingLeft=34;spacingRight=4;overflow=hidden;rotatable=0;points=[[0,0.5],[1,0.5]];portConstraint=eastwest;dropTarget=0;fontSize=12;" parent="wkyLA0-zLoEX_zGzszOJ-16" vertex="1">
          <mxGeometry y="167.45263157894735" width="200" height="26.547368421052628" as="geometry" />
        </mxCell>
        <mxCell id="wkyLA0-zLoEX_zGzszOJ-13" value="" style="shape=partialRectangle;top=0;left=0;bottom=0;fillColor=none;align=left;verticalAlign=top;spacingLeft=4;spacingRight=4;overflow=hidden;rotatable=0;points=[];portConstraint=eastwest;part=1;fontSize=12;" parent="wkyLA0-zLoEX_zGzszOJ-12" vertex="1" connectable="0">
          <mxGeometry width="30" height="26.547368421052628" as="geometry" />
        </mxCell>
        <mxCell id="wkyLA0-zLoEX_zGzszOJ-17" value="Jump Login" style="strokeWidth=2;html=1;shape=mxgraph.flowchart.start_2;whiteSpace=wrap;" parent="1" vertex="1">
          <mxGeometry x="370" y="300" width="100" height="100" as="geometry" />
        </mxCell>
        <mxCell id="wkyLA0-zLoEX_zGzszOJ-18" value="Is target Org allowed ?" style="strokeWidth=2;html=1;shape=mxgraph.flowchart.decision;whiteSpace=wrap;" parent="1" vertex="1">
          <mxGeometry x="370" y="440" width="100" height="100" as="geometry" />
        </mxCell>
        <mxCell id="wkyLA0-zLoEX_zGzszOJ-20" value="" style="edgeStyle=segmentEdgeStyle;endArrow=classic;html=1;exitX=0.5;exitY=1;exitDx=0;exitDy=0;exitPerimeter=0;entryX=0.5;entryY=0;entryDx=0;entryDy=0;entryPerimeter=0;" parent="1" source="wkyLA0-zLoEX_zGzszOJ-17" target="wkyLA0-zLoEX_zGzszOJ-18" edge="1">
          <mxGeometry width="50" height="50" relative="1" as="geometry">
            <mxPoint x="420" y="620" as="sourcePoint" />
            <mxPoint x="530" y="620" as="targetPoint" />
          </mxGeometry>
        </mxCell>
        <mxCell id="wkyLA0-zLoEX_zGzszOJ-21" value="Is the time in the valid range ?" style="strokeWidth=2;html=1;shape=mxgraph.flowchart.decision;whiteSpace=wrap;" parent="1" vertex="1">
          <mxGeometry x="370" y="580" width="100" height="100" as="geometry" />
        </mxCell>
        <mxCell id="wkyLA0-zLoEX_zGzszOJ-22" value="" style="edgeStyle=segmentEdgeStyle;endArrow=classic;html=1;exitX=0.5;exitY=1;exitDx=0;exitDy=0;exitPerimeter=0;entryX=0.5;entryY=0;entryDx=0;entryDy=0;entryPerimeter=0;" parent="1" source="wkyLA0-zLoEX_zGzszOJ-18" target="wkyLA0-zLoEX_zGzszOJ-21" edge="1">
          <mxGeometry width="50" height="50" relative="1" as="geometry">
            <mxPoint x="430" y="410" as="sourcePoint" />
            <mxPoint x="430" y="450" as="targetPoint" />
          </mxGeometry>
        </mxCell>
        <UserObject label="&lt;div&gt;YES&lt;/div&gt;" placeholders="1" name="Variable" id="wkyLA0-zLoEX_zGzszOJ-23">
          <mxCell style="text;html=1;strokeColor=none;fillColor=none;align=center;verticalAlign=middle;whiteSpace=wrap;overflow=hidden;" parent="1" vertex="1">
            <mxGeometry x="400" y="550" width="80" height="20" as="geometry" />
          </mxCell>
        </UserObject>
        <UserObject label="NO" placeholders="1" name="Variable" id="wkyLA0-zLoEX_zGzszOJ-24">
          <mxCell style="text;html=1;strokeColor=none;fillColor=none;align=center;verticalAlign=middle;whiteSpace=wrap;overflow=hidden;" parent="1" vertex="1">
            <mxGeometry x="450" y="460" width="80" height="20" as="geometry" />
          </mxCell>
        </UserObject>
      </root>
    </mxGraphModel>
  </diagram>
  <diagram id="N7UUstfJuLTzh2v9JSUC" name="Qlik Sense">
    <mxGraphModel dx="1065" dy="662" grid="1" gridSize="10" guides="1" tooltips="1" connect="1" arrows="1" fold="1" page="1" pageScale="1" pageWidth="850" pageHeight="1100" math="0" shadow="0">
      <root>
        <mxCell id="WIoBAksvxjJxZfdmrl_t-0" />
        <mxCell id="WIoBAksvxjJxZfdmrl_t-1" parent="WIoBAksvxjJxZfdmrl_t-0" />
        <mxCell id="WIoBAksvxjJxZfdmrl_t-2" value="Browser" style="strokeWidth=2;html=1;shape=mxgraph.flowchart.document2;whiteSpace=wrap;size=0.25;" vertex="1" parent="WIoBAksvxjJxZfdmrl_t-1">
          <mxGeometry x="390" y="60" width="100" height="60" as="geometry" />
        </mxCell>
        <mxCell id="WIoBAksvxjJxZfdmrl_t-4" value="Report User" style="shape=umlActor;verticalLabelPosition=bottom;labelBackgroundColor=#ffffff;verticalAlign=top;html=1;outlineConnect=0;" vertex="1" parent="WIoBAksvxjJxZfdmrl_t-1">
          <mxGeometry x="150" y="60" width="30" height="60" as="geometry" />
        </mxCell>
        <mxCell id="WIoBAksvxjJxZfdmrl_t-7" value="" style="group" vertex="1" connectable="0" parent="WIoBAksvxjJxZfdmrl_t-1">
          <mxGeometry x="370" y="230" width="200" height="130" as="geometry" />
        </mxCell>
        <mxCell id="WIoBAksvxjJxZfdmrl_t-5" value="&lt;b&gt;Calix Cloud&lt;/b&gt;" style="points=[[0,0],[0.25,0],[0.5,0],[0.75,0],[1,0],[1,0.25],[1,0.5],[1,0.75],[1,1],[0.75,1],[0.5,1],[0.25,1],[0,1],[0,0.75],[0,0.5],[0,0.25]];outlineConnect=0;gradientColor=none;html=1;whiteSpace=wrap;fontSize=12;fontStyle=0;shape=mxgraph.aws4.group;grIcon=mxgraph.aws4.group_on_premise;strokeColor=#5A6C86;fillColor=none;verticalAlign=top;align=left;spacingLeft=30;fontColor=#5A6C86;dashed=0;" vertex="1" parent="WIoBAksvxjJxZfdmrl_t-7">
          <mxGeometry x="20" width="180" height="130" as="geometry" />
        </mxCell>
        <mxCell id="WIoBAksvxjJxZfdmrl_t-6" value="Cloud Web" style="label;whiteSpace=wrap;html=1;image=img/clipart/Gear_128x128.png" vertex="1" parent="WIoBAksvxjJxZfdmrl_t-7">
          <mxGeometry y="50" width="140" height="60" as="geometry" />
        </mxCell>
        <mxCell id="WIoBAksvxjJxZfdmrl_t-8" value="&lt;div&gt;Report Server&lt;/div&gt;" style="outlineConnect=0;fontColor=#232F3E;gradientColor=none;strokeColor=#232F3E;fillColor=#ffffff;dashed=0;verticalLabelPosition=bottom;verticalAlign=top;align=center;html=1;fontSize=12;fontStyle=0;aspect=fixed;shape=mxgraph.aws4.resourceIcon;resIcon=mxgraph.aws4.traditional_server;" vertex="1" parent="WIoBAksvxjJxZfdmrl_t-1">
          <mxGeometry x="135" y="265" width="60" height="60" as="geometry" />
        </mxCell>
        <mxCell id="WIoBAksvxjJxZfdmrl_t-9" value="" style="endArrow=classic;html=1;entryX=0;entryY=0.5;entryDx=0;entryDy=0;entryPerimeter=0;" edge="1" parent="WIoBAksvxjJxZfdmrl_t-1" source="WIoBAksvxjJxZfdmrl_t-4" target="WIoBAksvxjJxZfdmrl_t-2">
          <mxGeometry width="50" height="50" relative="1" as="geometry">
            <mxPoint x="400" y="360" as="sourcePoint" />
            <mxPoint x="450" y="310" as="targetPoint" />
          </mxGeometry>
        </mxCell>
        <mxCell id="WIoBAksvxjJxZfdmrl_t-10" value="" style="endArrow=classic;html=1;entryX=0.5;entryY=0;entryDx=0;entryDy=0;" edge="1" parent="WIoBAksvxjJxZfdmrl_t-1" source="WIoBAksvxjJxZfdmrl_t-2" target="WIoBAksvxjJxZfdmrl_t-6">
          <mxGeometry width="50" height="50" relative="1" as="geometry">
            <mxPoint x="400" y="360" as="sourcePoint" />
            <mxPoint x="450" y="310" as="targetPoint" />
          </mxGeometry>
        </mxCell>
        <mxCell id="WIoBAksvxjJxZfdmrl_t-11" value="" style="endArrow=classic;html=1;exitX=0;exitY=0.25;exitDx=0;exitDy=0;" edge="1" parent="WIoBAksvxjJxZfdmrl_t-1" source="WIoBAksvxjJxZfdmrl_t-6" target="WIoBAksvxjJxZfdmrl_t-8">
          <mxGeometry width="50" height="50" relative="1" as="geometry">
            <mxPoint x="400" y="360" as="sourcePoint" />
            <mxPoint x="450" y="310" as="targetPoint" />
          </mxGeometry>
        </mxCell>
        <mxCell id="WIoBAksvxjJxZfdmrl_t-12" value="" style="endArrow=classic;html=1;exitX=0.03;exitY=0.933;exitDx=0;exitDy=0;exitPerimeter=0;" edge="1" parent="WIoBAksvxjJxZfdmrl_t-1" source="WIoBAksvxjJxZfdmrl_t-2">
          <mxGeometry width="50" height="50" relative="1" as="geometry">
            <mxPoint x="400" y="360" as="sourcePoint" />
            <mxPoint x="170" y="260" as="targetPoint" />
          </mxGeometry>
        </mxCell>
        <mxCell id="WIoBAksvxjJxZfdmrl_t-13" value="1" style="ellipse;whiteSpace=wrap;html=1;strokeColor=#757575;fontSize=14;fontStyle=1" vertex="1" parent="WIoBAksvxjJxZfdmrl_t-1">
          <mxGeometry x="440" y="160" width="40" height="40" as="geometry" />
        </mxCell>
        <mxCell id="WIoBAksvxjJxZfdmrl_t-14" value="2" style="ellipse;whiteSpace=wrap;html=1;strokeColor=#757575;fontSize=14;fontStyle=1" vertex="1" parent="WIoBAksvxjJxZfdmrl_t-1">
          <mxGeometry x="280" y="300" width="40" height="40" as="geometry" />
        </mxCell>
        <mxCell id="WIoBAksvxjJxZfdmrl_t-15" value="4" style="ellipse;whiteSpace=wrap;html=1;strokeColor=#757575;fontSize=14;fontStyle=1" vertex="1" parent="WIoBAksvxjJxZfdmrl_t-1">
          <mxGeometry x="280" y="130" width="40" height="40" as="geometry" />
        </mxCell>
        <mxCell id="WIoBAksvxjJxZfdmrl_t-16" value="" style="endArrow=classic;html=1;fontSize=14;entryX=0.41;entryY=1.033;entryDx=0;entryDy=0;entryPerimeter=0;dashed=1;" edge="1" parent="WIoBAksvxjJxZfdmrl_t-1" target="WIoBAksvxjJxZfdmrl_t-2">
          <mxGeometry width="50" height="50" relative="1" as="geometry">
            <mxPoint x="200" y="270" as="sourcePoint" />
            <mxPoint x="450" y="310" as="targetPoint" />
            <Array as="points">
              <mxPoint x="431" y="270" />
            </Array>
          </mxGeometry>
        </mxCell>
        <mxCell id="WIoBAksvxjJxZfdmrl_t-17" value="3" style="ellipse;whiteSpace=wrap;html=1;strokeColor=#757575;fontSize=14;fontStyle=1" vertex="1" parent="WIoBAksvxjJxZfdmrl_t-1">
          <mxGeometry x="330" y="225" width="40" height="40" as="geometry" />
        </mxCell>
      </root>
    </mxGraphModel>
  </diagram>
</mxfile>
